<?xml version="1.0" standalone="no"?>
<!DOCTYPE svg PUBLIC "-//W3C//DTD SVG 20010904//EN"
 "http://www.w3.org/TR/2001/REC-SVG-20010904/DTD/svg10.dtd">
<svg version="1.0" xmlns="http://www.w3.org/2000/svg"
 width="512.000000pt" height="512.000000pt" viewBox="0 0 512.000000 512.000000"
 preserveAspectRatio="xMidYMid meet">
<metadata>
Created by potrace 1.14, written by Peter Selinger 2001-2017
</metadata>
<g transform="translate(0.000000,512.000000) scale(0.100000,-0.100000)"
fill="#000000" stroke="none">
<path d="M413 5105 c-94 -26 -206 -93 -266 -160 -42 -47 -89 -129 -111 -197
l-25 -73 0 -2105 c0 -1712 2 -2116 13 -2165 36 -165 152 -303 313 -374 l58
-26 2170 0 2170 0 68 32 c155 74 257 192 298 348 17 67 18 159 16 2190 l-2
2120 -23 62 c-57 160 -185 286 -344 340 -50 17 -162 18 -2168 20 -1794 1
-2123 0 -2167 -12z"/>
</g>
</svg>
